<?xml version="1.0" encoding="iso-8859-1"?>
<!-- Generator: Adobe Illustrator 19.0.0, SVG Export Plug-In . SVG Version: 6.00 Build 0)  -->
<svg version="1.1" id="Layer_1" xmlns="http://www.w3.org/2000/svg" xmlns:xlink="http://www.w3.org/1999/xlink" x="0px" y="0px"
	 viewBox="0 0 505 505" style="enable-background:new 0 0 505 505;" xml:space="preserve">
<circle style="fill:#90DFAA;" cx="252.5" cy="252.5" r="252.5"/>
<path style="fill:#FFFFFF;" d="M400.2,231.2c0,0-2.4,10.3-14.8,10.3c0,0-88.2,46.8-94.8,260.5c-12.4,1.9-25.2,2.9-38.2,2.9
	c-12.9,0-25.7-1-38.1-2.9c-6.6-213.8-94.8-260.5-94.8-260.5c-12.3,0-14.8-10.3-14.8-10.3c14.4,3,17.8-6.9,17.8-6.9
	c-11.6,3-17.8-5.9-17.8-5.9c13.9-3.9,22.1-12.4,22.1-12.4c-17.2-0.9-15.7-11.7-15.7-11.7c30.6-6.4,41.4-34.1,41.4-34.1
	c-31-20.7-33.5-60.1-33.5-60.1c3,4.9,21.7,9.9,21.7,9.9c-5.9-3-7.9-15.3-7.9-15.3c3,4.9,11.3,3.9,11.3,3.9
	c20.2-23.7,106.2-19.7,106.2-19.7s0.5,0,1.3,0l0,0h1.5l0,0c0.8,0,1.3,0,1.3,0s86-3.9,106.2,19.7c0,0,8.4,1,11.3-3.9
	c0,0-2,12.3-7.9,15.3c0,0,18.7-4.9,21.7-9.9c0,0-2.4,39.5-33.5,60.1c0,0,10.8,27.7,41.4,34.1c0,0,1.6,10.8-15.7,11.7
	c0,0,8.2,8.5,22.1,12.4c0,0-6.3,8.9-17.8,5.9C382.4,224.3,385.8,234.3,400.2,231.2z"/>
<g>
	<path style="fill:#F9B54C;" d="M316,231.7c0,0-5.2,67.3-46.2,57C269.8,288.6,261.7,234.4,316,231.7z"/>
	<path style="fill:#F9B54C;" d="M189,231.7c0,0,5.2,67.3,46.2,57C235.2,288.6,243.3,234.4,189,231.7z"/>
</g>
<path style="fill:#FFD05B;" d="M297.5,218.6c-6.4-23.6-40.3-24.1-45-24c-4.7-0.1-38.6,0.4-45,24c0,0-58.3,2.7-13.8,26.8
	c0,0,26.7,5.6,34.5,46.7c2.6,13.5,13,23.3,24.4,20.6c11.4,2.7,21.8-7.2,24.4-20.6c7.8-41.2,34.5-46.7,34.5-46.7
	C355.8,221.4,297.5,218.6,297.5,218.6z"/>
<g>
	<ellipse style="fill:#324A5E;" cx="264.2" cy="236.3" rx="5.2" ry="12"/>
	<ellipse style="fill:#324A5E;" cx="240.8" cy="236.3" rx="5.2" ry="12"/>
	<path style="fill:#324A5E;" d="M373.4,139.8c0,0-22.9,27.4-62.1,23.9c0,0,11.2,37.4,40.8,31.1c22.2-4.7,33.6-28.9,24.2-48.9
		L373.4,139.8z"/>
	<path style="fill:#324A5E;" d="M131.6,139.8c0,0,22.9,27.4,62.1,23.9c0,0-11.2,37.4-40.8,31.1c-22.2-4.7-33.6-28.9-24.2-48.9
		L131.6,139.8z"/>
</g>
<g>
	<ellipse style="fill:#FFFFFF;" cx="344.4" cy="175.9" rx="5.9" ry="8.2"/>
	<ellipse style="fill:#FFFFFF;" cx="160.6" cy="175.9" rx="5.9" ry="8.2"/>
</g>
<g>
</g>
<g>
</g>
<g>
</g>
<g>
</g>
<g>
</g>
<g>
</g>
<g>
</g>
<g>
</g>
<g>
</g>
<g>
</g>
<g>
</g>
<g>
</g>
<g>
</g>
<g>
</g>
<g>
</g>
</svg>
